# Alias OBJ Model File
# Exported from SketchUp, (c) 2000-2012 Trimble Navigation Limited
# File units = inches

mtllib bear.mtl

g Mesh1 Group1 Model

usemtl Material8
v 9.81634 4.5667 -15.6367
vt -0.00176937 0.0274741
vn 1.83606e-16 0.795966 -0.605341
v 10.6963 4.5667 -15.6367
vt -2.00177 0.0274741
v 10.6963 3.79925 -16.6459
vt -2.00177 -2.85387
v 9.81634 3.79925 -16.6459
vt -0.00176937 -2.85387
f 1/1/1 2/2/1 3/3/1 4/4/1 

vt 2.00177 1.01777
vn -3.642e-16 -0.430655 0.902517
v 9.81634 5.75802 -15.0683
vt 0.00176937 4.01777
vt 0.00176937 1.01777
f 2/5/2 5/6/2 1/7/2

v 12.0702 5.75796 -15.729
vt -5.33973 4.3187
vn -0.272895 0.242638 -0.930943
vt -2.28437 1.52788
vt -0.00169792 4.31883
f 6/8/3 2/9/3 5/10/3

v 15.2613 4.89982 -17.3942
vt -13.4575 2.29481
vn -0.358906 0.346821 -0.866546
vt -2.34379 1.48762
vt -5.30885 4.3742
f 7/11/4 2/12/4 6/13/4

vt 3.35794 -1.80634
vn 0.27952 -0.764239 0.581213
vt 13.4449 2.07202
vt 2.36394 0.898116
f 3/14/5 7/15/5 2/16/5

vt 13.1117 3.85096
vn 0.274983 -0.884764 0.376266
vt 3.73172 -1.51616
v 15.2613 4.58652 -18.1309
vt 14.0996 2.32307
f 7/17/6 3/18/6 8/19/6

v 10.6963 3.79925 -19.6159
vt -10.3354 1.97265
vn -0.169947 0.985453 -1.73985e-17
vt -3.58541 1.97265
vt -6.96041 12.5008
f 9/20/7 3/21/7 8/22/7

vt 2.00177 3.58541
vn -5.55112e-16 1 3.28955e-17
vt 2.00177 10.3354
v 9.81634 3.79925 -19.6159
vt 0.00176937 10.3354
vt 0.00176937 3.58541
f 3/23/8 9/24/8 10/25/8 4/26/8 

v 10.6963 4.5667 -20.625
vt 2.00177 11.108
vn -2.58809e-16 0.795966 0.605341
v 9.81634 4.5667 -20.625
vt 0.00176937 11.108
vt 0.00176937 8.22664
vt 2.00177 8.22664
f 11/27/9 12/28/9 10/29/9 9/30/9 

v 9.81634 5.75802 -21.1934
vt -0.00176937 10.0128
vn 1.0308e-15 -0.430655 -0.902517
vt -2.00177 7.01284
vt -0.00176937 7.01284
f 13/31/10 11/32/10 12/33/10

vt -1.83442 4.61068
vn -0.288661 0.230226 0.929339
v 12.0702 5.91691 -20.5327
vt 1.20971 7.76406
vt -4.12764 7.39297
f 11/34/11 14/35/11 13/36/11

vt -2.58993 5.2226
vn -0.338863 0.28351 0.897103
v 15.2613 5.03949 -19.0501
vt 8.38056 6.34309
vt 0.405192 8.42256
f 11/37/12 15/38/12 14/39/12

vt -7.22897 12.1509
vn 0.279657 -0.764207 -0.581188
vt 2.67759 7.7806
vt 3.67202 10.4849
f 15/40/13 9/41/13 11/42/13

vt 4.12492 8.3251
vn 0.286018 -0.859525 -0.423569
vt -5.19299 13.8402
vt -6.36208 11.8259
f 9/43/14 15/44/14 8/45/14

vt -9.04949 2.81871
vn -1 -8.79526e-16 3.42698e-16
vt -6.96041 1.78923
vt -5.28606 2.50128
v 15.2613 6.1335 -17.0628
vt -4.53292 5.30511
v 15.2613 6.14218 -18.1309
vt -6.96041 5.32482
v 15.2613 6.17261 -19.1164
vt -9.20034 5.394
f 15/46/15 8/47/15 7/48/15 16/49/15 17/50/15 18/51/15 

vt -13.4559 2.48982
vn -0.398264 0.237954 -0.885869
vt -5.28938 4.49782
vt -13.1471 5.37656
f 7/52/16 6/53/16 16/54/16

vt -5.33899 2.95829
vn -0.172179 -0.760513 -0.626078
v 13.4639 6.29061 -16.7593
vt -9.01386 4.82262
v 13.6187 6.65181 -17.2406
vt -9.64326 6.08689
vt -13.1357 4.27274
f 6/55/17 19/56/17 20/57/17 16/58/17 

v 13.3423 7.21688 -16.3766
vt 8.02545 8.22877
vn 0.633185 -0.223119 0.741144
vt 4.87141 4.82731
vt 8.80056 6.06916
f 21/59/18 6/60/18 19/61/18

vt 5.17592 4.52341
vn 0.507519 -0.0610258 0.859477
vt 8.41364 7.84532
v 12.3308 6.84906 -15.8054
vt 5.77405 7.00781
f 6/62/19 21/63/19 22/64/19

v 12.3335 8.16857 -15.8062
vt -5.80752 9.93094
vn -0.491839 0.000498608 -0.870686
vt -8.44118 7.768
vt -5.8011 6.93205
f 23/65/20 21/66/20 22/67/20

v 12.526 8.63607 -17.1934
vt -6.81436 6.4755
vn -0.739093 -0.600611 -0.304973
vt -5.80584 2.44139
vt -3.73311 5.14662
f 24/68/21 21/69/21 23/70/21

vt -3.27092 2.62641
vn -0.85831 -0.512126 -0.0321116
vt -5.05673 6.38169
v 13.3423 7.32688 -18.1309
vt -7.25521 2.91748
f 21/71/22 24/72/22 25/73/22

v 12.471 8.63607 -17.867
vt -5.84855 5.41944
vn -0.824314 -0.562118 0.0673033
vt -6.28507 1.82181
vt -4.31249 5.41944
f 26/74/23 25/75/23 24/76/23

vt 3.30076 2.51037
vn -0.456775 -0.457697 0.762804
vt 1.91004 5.85691
v 12.3335 8.33357 -18.1309
vt 1.33387 5.08367
f 25/77/24 26/78/24 27/79/24

vt 3.74418 4.57632
vn -0.257747 -0.565906 0.783146
v 10.6963 9.07925 -18.1309
vt -0.27454 5.79799
vt 3.25988 3.74245
f 26/80/25 28/81/25 27/82/25

vt -6.96041 0.96524
vn -0.242281 -0.970206 1.01006e-15
vt -6.36077 -3.19205
v 10.6963 9.07925 -16.6459
vt -3.58541 0.96524
f 28/83/26 26/84/26 29/85/26

vt -4.31249 -3.81906
vn -0.230053 -0.972997 0.0187833
vt -3.41062 0.544677
vt -5.84855 -3.81906
f 24/86/27 29/87/27 26/88/27

vt 5.3389 2.27868
vn 0.316658 0.884703 0.342094
vt 7.80161 4.55796
vt 3.90459 6.71868
f 23/89/28 24/90/28 29/91/28

v 10.6963 8.29218 -15.5862
vt -2.21862 6.74002
vn -0.139358 -0.79495 -0.590452
vt -2.77184 9.68857
vt -5.9549 6.27698
f 30/92/29 29/93/29 23/94/29

vt -2.00177 10.0336
vn 5.09406e-17 -0.802783 -0.596271
vt -2.00177 7.03356
v 9.81634 8.29218 -15.5862
vt -0.00176937 7.03356
f 29/95/30 30/96/30 31/97/30

vt -2.00177 9.85422
vn -3.15582e-17 -0.392354 -0.919814
v 9.81634 7.07802 -15.0683
vt -0.00176937 6.85422
vt -0.00176937 9.85422
f 30/98/31 32/99/31 31/100/31

vt -5.91426 9.71461
vn -0.14908 -0.294587 -0.943924
vt -0.0017477 7.12099
vt -2.16089 10.0086
f 23/101/32 32/102/32 30/103/32

vt 5.33973 4.45161
vn 0.281307 -2.29049e-16 0.959618
vt 5.95678 6.93138
vt 5.96337 9.93027
vt 0.00169791 7.45175
vt 0.00169791 4.45175
f 6/104/33 22/105/33 23/106/33 32/107/33 5/108/33 

v 9.81634 9.61218 -20.6755
vt 12.7438 13.2112
vn 1 6.01222e-17 2.54131e-17
v 9.81634 9.9055 -20.3115
vt 11.9164 13.8778
v 9.81634 9.07925 -19.6159
vt 10.3354 12
v 9.81634 9.07925 -18.1309
vt 6.96041 12
v 9.81634 9.07925 -16.6459
vt 3.58541 12
v 9.81634 9.9055 -15.9502
vt 2.0044 13.8778
v 9.81634 9.61218 -15.5862
vt 1.17706 13.2112
vt 1.17706 10.2112
vt 8.88223e-16 7.45175
vt 4.49651e-20 4.45175
vt 1.29196 1.74419
vt 3.58541 -1.06378e-19
vt 10.3354 -1.06378e-19
vt 12.6289 1.74419
vt 13.9208 4.45175
v 9.81634 7.07802 -21.1934
vt 13.9208 7.45175
v 9.81634 8.29218 -20.6755
vt 12.7438 10.2112
f 33/109/34 34/110/34 35/111/34 36/112/34 37/113/34 38/114/34 39/115/34 31/116/34 32/117/34 5/118/34 1/119/34 4/120/34 10/121/34 12/122/34 13/123/34 40/124/34 41/125/34 

vt -11.3458 8.64762
vn -0.77519 -0.491909 0.396365
v 10.6963 9.07925 -19.6159
vt -8.29094 7.25648
vt -10.6091 9.41331
f 33/126/35 42/127/35 34/128/35

vt -6.6723 12
vn -0.769313 5.56875e-18 0.638872
vt -9.80282 13.2112
vt -9.80282 10.2112
f 42/129/36 33/130/36 41/131/36

v 10.6963 8.29218 -20.6755
vt 2.00177 -4.14185
vn 1.80621e-17 -0.802783 0.596271
vt 2.00177 -1.14185
vt 0.00176937 -4.14185
f 43/132/37 42/133/37 41/134/37

vt -0.425891 -1.08187
vn -0.139358 -0.79495 0.590452
vt -0.979109 -4.03042
v 12.3335 8.16857 -20.4555
vt 2.75717 -4.49346
f 42/135/38 43/136/38 44/137/38

vt -2.16995 3.0703
vn -0.14908 -0.294587 0.943924
vt 3.74256 5.66392
vt -0.0108067 5.95788
f 40/138/39 44/139/39 43/140/39

vt 3.91433 4.45175
vn 0.281307 -1.56097e-16 -0.959618
vt 3.91433 7.45175
vt -2.04734 9.93027
v 12.3308 6.84906 -20.4564
vt -2.04075 6.93138
vt -1.4237 4.81286
f 13/141/40 40/142/40 44/143/40 45/144/40 14/145/40 

v 13.3423 7.21688 -19.8852
vt 1.59437 7.77404
vn -0.491839 0.000498608 0.870686
vt -1.03929 9.93699
vt -1.0457 6.9381
f 46/146/41 44/147/41 45/148/41

vt -7.0625 -0.74779
vn -0.739093 -0.600611 0.304973
v 12.526 8.63607 -19.0683
vt -6.05399 3.28633
vt -9.13524 1.95744
f 46/149/42 47/150/42 44/151/42

vt -6.65588 2.65094
vn -0.85831 -0.512126 0.0321116
vt -8.85436 6.11515
vt -10.6402 2.35988
f 25/152/43 47/153/43 46/154/43

vt -7.58958 2.4586
vn -0.824314 -0.562118 -0.0673033
v 12.471 8.63607 -18.3947
vt -8.02611 6.05623
vt -9.56217 6.05623
f 25/155/44 48/156/44 47/157/44

vt -9.06179 11.3233
vn -0.456775 -0.457697 -0.762804
vt -10.4525 7.97677
vt -8.48562 10.5501
f 48/158/45 25/159/45 27/160/45

vt -4.07741 13.281
vn -0.257747 -0.565906 -0.783146
vt -8.09613 12.0593
vt -7.61184 11.2255
f 28/161/46 48/162/46 27/163/46

vt -7.56005 -3.19205
vn -0.242281 -0.970206 1.00151e-15
vt -10.3354 0.96524
f 48/164/47 28/83/47 42/165/47

vt -2.00177 10.3354
vn -2.96059e-16 -1 3.94746e-16
vt -2.00177 6.96041
vt -2.00177 3.58541
vt -0.00176937 3.58541
vt -0.00176937 6.96041
vt -0.00176937 10.3354
f 42/166/48 28/167/48 29/168/48 37/169/48 36/170/48 35/171/48 

vt 2.00177 6.87049
vn 2.60361e-15 -0.644059 0.764976
vt 0.00176937 9.32525
vt 0.00176937 6.87049
f 29/172/49 38/173/49 37/174/49

vt -4.10363 10.374
vn -0.77519 -0.491909 -0.396365
vt -1.04882 11.7651
vt -1.78545 12.5308
f 29/175/50 39/176/50 38/177/50

vt -0.90666 13.2112
vn -0.769313 1.68176e-17 -0.638872
vt -4.03718 12
vt -0.90666 10.2112
f 39/178/51 29/179/51 31/180/51

vt -0.00176937 18.2911
vn 1.39612e-16 -0.644059 -0.764976
vt -2.00177 15.8363
vt -0.00176937 15.8363
f 34/181/52 42/182/52 35/183/52

vt -10.464 1.64692
vn -0.230053 -0.972997 -0.0187833
vt -9.56217 -2.71681
vt -8.02611 -2.71681
f 42/184/53 47/185/53 48/186/53

vt 1.65477 -4.48015
vn 0.316658 0.884703 -0.342094
vt 4.11748 -6.75943
vt 5.55179 -2.31943
f 47/187/54 44/188/54 42/189/54

vt -10.6381 2.32657
vn -0.856839 -0.514574 0.0322651
v 13.6187 6.81076 -19.0211
vt -8.65207 1.25012
vt -6.65387 2.61813
f 46/190/55 49/191/55 25/192/55

vt 7.97929 7.77927
vn 0.952298 -0.00108853 -0.305167
vt 5.91743 6.85627
v 13.4519 6.38186 -19.5402
vt 7.15653 5.88149
f 46/193/56 49/194/56 50/195/56

vt 5.10966 -3.25411
vn -0.237355 -0.710012 0.662982
vt 4.35509 -4.63837
vt 0.638348 -6.13895
vt 8.55143 -5.31369
f 49/196/57 50/197/57 14/198/57 18/199/57 

vt 0.75308 10.6715
vn 0.617648 -0.22971 -0.75216
vt 0.0629284 8.72162
vt 3.92131 7.63589
f 46/200/58 50/201/58 14/202/58

vt -1.28639 8.72482
vn 0.510243 -0.0723981 -0.856978
vt 1.95057 5.76258
vt 1.35298 7.88667
f 46/203/59 14/204/59 45/205/59

vt -0.406942 5.52272
vn -0.408657 0.053372 0.911126
vt 7.58948 3.52572
vt 7.52774 6.10468
f 14/206/60 15/207/60 18/208/60

vt -9.63752 -4.86853
vn -0.363423 -0.93118 -0.0287578
vt -10.148 -8.84685
vt -7.91505 -9.0366
f 49/209/61 18/210/61 17/211/61

vt 0.694038 -8.32248
vn -0.498808 -0.808006 0.313557
vt -1.62714 -3.75252
vt -3.00573 -5.74344
f 17/212/62 25/213/62 49/214/62

vt -10.5478 4.23068
vn -0.473173 -0.766481 -0.434297
vt -13.497 0.0384918
vt -9.482 1.84188
f 25/215/63 17/216/63 20/217/63

vt -4.85075 -10.0975
vn -0.300138 -0.953864 -0.00774638
vt -5.15851 -6.17402
vt -7.27743 -10.0318
f 16/218/64 20/219/64 17/220/64

vt -5.17705 2.45589
vn -0.91285 -0.407494 -0.025551
vt -3.19644 3.86219
vt -7.18195 4.13595
f 20/221/65 21/222/65 25/223/65

vt 5.27926 7.7754
vn 0.952218 -0.0012018 0.305416
vt 6.19193 5.67024
vt 7.34111 6.49115
f 21/224/66 19/225/66 20/226/66

vt 0.00176937 1.39233
vn -8.1911e-18 -0.392354 0.919814
vt 2.00177 4.39233
vt 0.00176937 4.39233
f 40/227/67 43/228/67 41/229/67

